HIERARCHY
ROOT root     
{
	OFFSET 0.0000 0.0000 0.0000
	CHANNELS 6 Xposition Yposition Zposition Zrotation Yrotation Xrotation
	JOINT pelvis   
	{
		OFFSET 0.0000 0.0000 0.0000
		CHANNELS 3 Zrotation Yrotation Xrotation
		JOINT thorax   
		{
			OFFSET 0.0000 23.0750 -5.0000
			CHANNELS 3 Zrotation Yrotation Xrotation
			JOINT rclavicle
			{
				OFFSET 0.0000 28.0009 0.0000
				CHANNELS 3 Zrotation Yrotation Xrotation
				JOINT rhumerus 
				{
					OFFSET -18.5725 5.5939 0.0000
					CHANNELS 3 Zrotation Yrotation Xrotation
					JOINT rradius  
					{
						OFFSET -24.8459 0.0000 0.0000
						CHANNELS 3 Zrotation Yrotation Xrotation
						JOINT rhand    
						{
							OFFSET -24.5477 0.0000 0.0000
							CHANNELS 3 Zrotation Yrotation Xrotation
							End Site
							{
								OFFSET -8.1826 0.0000 0.0000
							}
						}
					}
				}
			}
			JOINT lclavicle
			{
				OFFSET 0.0000 28.0009 0.0000
				CHANNELS 3 Zrotation Yrotation Xrotation
				JOINT lhumerus 
				{
					OFFSET 18.5725 5.5939 0.0000
					CHANNELS 3 Zrotation Yrotation Xrotation
					JOINT lradius  
					{
						OFFSET 24.8459 0.0000 0.0000
						CHANNELS 3 Zrotation Yrotation Xrotation
						JOINT lhand    
						{
							OFFSET 24.5477 0.0000 0.0000
							CHANNELS 3 Zrotation Yrotation Xrotation
							End Site
							{
								OFFSET 8.1826 0.0000 0.0000
							}
						}
					}
				}
			}
			JOINT head     
			{
				OFFSET 0.0000 35.2030 0.0000
				CHANNELS 3 Zrotation Yrotation Xrotation
				End Site
				{
					OFFSET 0.0000 11.7343 0.0000
				}
			}
		}
		JOINT rfemur   
		{
			OFFSET -8.2817 0.0000 0.0000
			CHANNELS 3 Zrotation Yrotation Xrotation
			JOINT rtibia   
			{
				OFFSET 0.0000 -43.3627 0.0000
				CHANNELS 3 Zrotation Yrotation Xrotation
				JOINT rfoot    
				{
					OFFSET 0.0000 -38.2947 0.0000
					CHANNELS 3 Zrotation Yrotation Xrotation
					JOINT rtoes    
					{
						OFFSET 0.0000 0.0000 16.6054
						CHANNELS 3 Zrotation Yrotation Xrotation
						End Site
						{
							OFFSET 0.0000 0.0000 5.5351
						}
					}
				}
			}
		}
		JOINT lfemur   
		{
			OFFSET 8.2817 0.0000 0.0000
			CHANNELS 3 Zrotation Yrotation Xrotation
			JOINT ltibia   
			{
				OFFSET 0.0000 -43.3627 0.0000
				CHANNELS 3 Zrotation Yrotation Xrotation
				JOINT lfoot    
				{
					OFFSET 0.0000 -38.2947 0.0000
					CHANNELS 3 Zrotation Yrotation Xrotation
					JOINT ltoes    
					{
						OFFSET 0.0000 0.0000 16.6054
						CHANNELS 3 Zrotation Yrotation Xrotation
						End Site
						{
							OFFSET 0.0000 0.0000 5.5351
						}
					}
				}
			}
		}
	}
}
MOTION
Frames: 21
Frame Time: .0333333
-82.195 76.054 -12.765 175.099 83.6384 -163.904 0 -0 0 0.725012 -10.9288 21.9414 25.7213 -13.3298 7.48047e-05 58.8644 -24.0523 5.22552 1.63958e-06 84.4633 1.48846e-06 -10.2361 -2.37258 0.2125 -16.0303 12.3867 -7.95101e-05 -40.2212 8.25048 -4.79978 180 -69.7607 180 -3.96615 3.76045 -0.130301 5.1986 -6.13902 -14.8164 15.2288 -10.6134 -61.5475 -0 -0 52.6631 5.67007e-06 -10.2524 -5.83757 -178.946 7.42645e-07 -7.783 4.45484 15.4421 -15.3773 -0 -0 53.5868 -1.97406e-06 5.22689 -9.73932 -0.886611 -5.56227e-06 -70.7708 
-80.876 75.868 -12.719 172.884 83.524 -166.513 0 -0 0 0.940112 -10.9355 22.0447 25.9248 -13.0594 -5.87688e-05 58.78 -23.611 4.95686 1.523e-06 84.0228 1.37187e-06 -10.3973 -2.36155 0.214901 -16.0799 12.2768 -7.32794e-05 -40.7996 8.76547 -4.38216 180 -70.1363 -180 -4.26632 3.42752 -0.127701 5.18686 -6.51445 -14.754 14.4503 -10.3281 -60.9798 -0 -0 54.4994 6.37853e-06 -10.9967 -7.46986 -178.553 3.70257e-06 -9.6092 4.88005 15.1765 -14.1513 -0 -0 53.6552 7.10759e-07 4.55467 -8.58379 -0.681193 3.77694e-07 -71.8758 
-79.575 75.71 -12.664 171.085 83.3828 -168.698 0 -0 0 1.1873 -10.9498 22.1411 26.1645 -12.7555 3.58203e-05 58.6404 -23.02 4.68765 -1.25187e-06 83.4773 -1.40305e-06 -10.5762 -2.37204 0.219596 -16.125 12.1275 4.33636e-05 -41.4677 9.30414 -3.94615 180 -70.6251 -180 -4.57121 3.09784 -0.123698 5.18846 -6.87116 -14.5957 13.7781 -10.0842 -60.355 -0 -0 56.1825 -7.70378e-06 -11.6886 -9.03174 -178.14 -2.16303e-06 -10.439 5.32221 14.8408 -13.0547 -0 -0 53.8453 -9.34492e-06 3.89714 -7.27076 -0.493991 -5.31797e-06 -72.4842 
-78.299 75.582 -12.597 169.729 83.2144 -170.4 0 -0 0 1.47434 -10.9816 22.2022 26.4312 -12.4332 9.07814e-05 58.4493 -22.282 4.42027 -2.26647e-06 82.8451 -2.5689e-06 -10.7649 -2.41264 0.227397 -16.1619 11.9417 -8.76688e-05 -42.2218 9.8684 -3.48876 180 -71.2324 -180 -4.8716 2.78863 -0.118602 5.20941 -7.21105 -14.3327 13.2259 -9.88903 -59.6913 -0 -0 57.666 -2.91164e-06 -12.3158 -10.4849 -177.725 2.37663e-06 -10.445 5.77043 14.4265 -12.1389 -0 -0 54.1803 6.51634e-06 3.26987 -5.83686 -0.332904 -2.30787e-07 -72.4829 
-77.047 75.484 -12.524 168.605 83.0276 -171.844 0 -0 0 1.7684 -11.0166 22.2476 26.7285 -12.1116 5.15274e-05 58.2112 -21.4041 4.15461 0 82.129 0 -10.9633 -2.49291 0.239305 -16.1683 11.7429 -8.24258e-05 -43.0676 10.4199 -2.99244 180 -71.9789 -180 -5.1664 2.52598 -0.114 5.26527 -7.54382 -13.975 12.7721 -9.76496 -58.9782 -0 -0 58.945 -3.69583e-05 -12.8501 -11.8132 -177.326 3.86311e-06 -9.78613 6.19549 13.9373 -11.3877 -0 -0 54.6523 -3.2834e-06 2.68475 -4.33425 -0.203003 -5.48974e-06 -71.6612 
-75.83 75.415 -12.442 167.762 82.8079 -172.943 0 -0 0 2.08414 -11.0726 22.2266 27.0334 -11.8013 0.000102656 57.9504 -20.4043 3.88789 -1.30695e-06 81.343 -1.52101e-06 -11.1567 -2.6115 0.255098 -16.1508 11.5058 -1.64629e-05 -43.984 11.013 -2.47874 180 -72.84 -180 -5.43578 2.31677 -0.109998 5.35788 -7.8705 -13.5223 12.4189 -9.70211 -58.2585 -0 -0 59.9945 8.92158e-05 -13.3046 -12.9929 -176.957 -5.47496e-06 -8.6347 6.58822 13.368 -10.8751 -0 -0 55.2954 -6.2957e-09 2.17585 -2.83697 -0.1077 5.59413e-07 -70.0902 
-74.642 75.371 -12.355 167.036 82.558 -173.882 0 -0 0 2.39461 -11.1286 22.1681 27.346 -11.5181 3.35643e-05 57.676 -19.3022 3.61613 0 80.5241 0 -11.3494 -2.77041 0.275302 -16.0927 11.2626 9.24999e-05 -44.9701 11.599 -1.92787 180 -73.8259 -180 -5.67864 2.18671 -0.108502 5.49779 -8.20451 -13.0019 12.1359 -9.70536 -57.5172 -0 -0 60.8461 -6.19136e-05 -13.6666 -14.0333 -176.626 -3.73855e-06 -7.19575 6.93045 12.7434 -10.5724 -0 -0 56.1015 -1.4347e-06 1.75484 -1.42754 -0.0436995 1.78282e-07 -67.5393 
-73.493 75.348 -12.265 166.357 82.2763 -174.702 0 -0 0 2.69425 -11.1927 22.0446 27.6499 -11.2636 -2.80425e-07 57.4146 -18.1316 3.33272 -5.77631e-07 79.6981 -1.16316e-06 -11.5267 -2.96159 0.298986 -16.0009 10.9979 -3.95768e-05 -46.0012 12.2219 -1.36136 180 -74.9103 -180 -5.87268 2.13135 -0.1093 5.68744 -8.54616 -12.4299 11.9073 -9.76405 -56.7943 -0 -0 61.5123 -8.70006e-06 -13.9552 -14.9444 -176.333 2.82927e-07 -5.703 7.20631 12.0678 -10.521 -0 -0 57.0785 2.79875e-08 1.46636 -0.174203 -0.00449996 -6.71507e-10 -64.3425 
-72.377 75.345 -12.172 165.69 81.9756 -175.453 0 -0 0 2.97317 -11.2461 21.8811 27.9348 -11.0437 1.69503e-05 57.1783 -16.9203 3.03356 -1.41067e-06 78.913 -1.71394e-06 -11.6935 -3.17667 0.325382 -15.8685 10.7367 -5.11992e-05 -47.0639 12.8477 -0.76654 180 -76.0908 -180 -6.01348 2.16408 -0.113698 5.92712 -8.90507 -11.8419 11.7106 -9.86444 -56.0839 -0 -0 62.0307 -2.33425e-05 -14.1784 -15.7504 -176.077 4.05287e-06 -4.3685 7.41396 11.3737 -10.6984 -0 -0 58.2192 4.74413e-08 1.32441 0.853394 0.0197002 1.38411e-07 -60.4441 
-71.296 75.356 -12.077 164.999 81.66 -176.171 0 -0 0 3.22853 -11.2806 21.6811 28.1888 -10.8547 -5.28901e-06 56.9856 -15.7041 2.7146 -0 78.1987 -0 -11.8476 -3.40191 0.353107 -15.7002 10.4896 9.36665e-05 -48.1377 13.4744 -0.145379 180 -77.3514 -180 -6.0904 2.28165 -0.121397 6.21296 -9.28389 -11.268 11.5303 -9.98779 -55.3993 -0 -0 62.4364 5.586e-05 -14.351 -16.4768 -175.85 -2.28518e-06 -3.34254 7.55196 10.6848 -11.1037 -0 -0 59.5155 4.84688e-07 1.35234 1.61248 0.0381002 2.59802e-07 -56.0505 
-70.252 75.381 -11.982 164.23 81.34 -176.909 0 -0 0 3.44837 -11.2904 21.4537 28.4011 -10.6846 6.63746e-05 56.8473 -14.5161 2.37498 0 77.5991 0 -11.9791 -3.62247 0.380186 -15.5115 10.247 6.92904e-05 -49.196 14.1306 0.482058 180 -78.644 -180 -6.0898 2.4649 -0.131097 6.54111 -9.67934 -10.7383 11.3489 -10.1177 -54.7551 -0 -0 62.7627 -7.93558e-05 -14.4895 -17.1391 -175.645 -1.15737e-06 -2.68938 7.61255 10.0174 -11.726 -0 -0 60.9384 8.04799e-07 1.57812 2.1164 0.0583 8.3056e-08 -51.7653 
-69.243 75.417 -11.885 163.435 81.0353 -177.621 0 -0 0 3.64576 -11.2602 21.2164 28.5603 -10.5291 -4.9429e-05 56.7667 -13.3847 2.01828 0 77.1449 0 -12.0953 -3.82115 0.404995 -15.3057 10.0435 6.27141e-06 -50.2233 14.774 1.13626 180 -79.9886 -180 -6.01649 2.71336 -0.142601 6.89953 -10.0938 -10.2805 11.1661 -10.2348 -54.149 -0 -0 63.0351 -3.03548e-05 -14.6043 -17.7477 -175.459 -1.93889e-07 -2.35793 7.61146 9.39999 -12.5478 -0 -0 62.474 4.02781e-07 1.99407 2.34185 0.0815007 -3.00402e-07 -47.4091 
-68.267 75.464 -11.789 162.589 80.7464 -178.343 0 -0 0 3.81421 -11.1842 20.9839 28.6587 -10.3737 -6.47815e-05 56.7421 -12.3317 1.65279 -8.25953e-07 76.8694 -1.04081e-06 -12.1897 -3.98349 0.425526 -15.1005 9.86728 -3.54701e-05 -51.1946 15.4301 1.79748 180 -81.3258 -180 -5.86558 3.00043 -0.153801 7.27965 -10.5198 -9.91507 10.9749 -10.3271 -53.5865 -0 -0 63.2754 6.53779e-05 -14.701 -18.3079 -175.289 -2.88418e-06 -2.25046 7.54747 8.84196 -13.5452 -0 -0 64.082 3.44397e-07 2.60612 2.34682 0.1068 1.16769e-08 -43.5618 
-67.322 75.522 -11.692 161.723 80.5002 -179.046 0 -0 0 3.96244 -11.0547 20.7709 28.6891 -10.2113 -1.59307e-05 56.7651 -11.3717 1.29004 -3.85173e-07 76.779 -9.72225e-07 -12.2588 -4.09545 0.440015 -14.9087 9.72985 -6.49138e-05 -52.0948 16.0905 2.46722 180 -82.6627 -180 -5.64578 3.31146 -0.163298 7.6706 -10.953 -9.65553 10.7817 -10.3893 -53.0616 -0 -0 63.4921 9.5605e-05 -14.7797 -18.8151 -175.137 -6.44841e-07 -2.22889 7.43124 8.35542 -14.6971 -0 -0 65.7325 -1.56893e-06 3.39345 2.15668 0.127901 9.06328e-07 -40.1914 
-66.407 75.592 -11.593 160.847 80.3039 -179.726 0 -0 0 4.09514 -10.8676 20.589 28.652 -10.0341 -1.05619e-05 56.8245 -10.5124 0.943514 -8.26998e-07 76.8838 -1.04185e-06 -12.3 -4.14681 0.447009 -14.7398 9.63782 1.14862e-05 -52.9121 16.7483 3.14485 180 -83.957 -180 -5.36725 3.62939 -0.170203 8.06209 -11.3862 -9.50496 10.593 -10.4186 -52.573 -0 -0 63.6897 4.44656e-05 -14.8352 -19.2653 -175.006 1.31932e-06 -2.15904 7.27156 7.9444 -15.9827 -0 -0 67.3948 1.40308e-06 4.32624 1.81147 0.137002 1.08185e-06 -37.3292 
-65.52 75.674 -11.494 159.995 80.1577 179.64 0 -0 0 4.21837 -10.6216 20.446 28.5457 -9.8397 3.06099e-05 56.9032 -9.752 0.62952 -4.06139e-07 77.1733 -9.92974e-07 -12.31 -4.13173 0.445809 -14.6046 9.5884 -1.95241e-07 -53.6382 17.4102 3.82206 180 -85.1959 -180 -5.04382 3.93913 -0.173603 8.44514 -11.8136 -9.45795 10.4183 -10.4192 -52.1145 -0 -0 63.861 2.57505e-05 -14.859 -19.6504 -174.902 1.42042e-06 -1.92564 7.07679 7.60694 -17.384 -0 -0 69.0356 4.38234e-07 5.36371 1.35842 0.127499 -1.57842e-06 -35.0092 
-64.656 75.771 -11.393 159.149 80.0793 179.031 0 -0 0 4.33173 -10.3184 20.3498 28.3764 -9.63268 3.95606e-05 56.9797 -9.07721 0.368637 1.09826e-06 77.6354 8.8357e-07 -12.2874 -4.05074 0.436217 -14.5095 9.57879 4.2106e-05 -54.2693 18.0814 4.48996 180 -86.3669 -180 -4.6904 4.22836 -0.173199 8.81512 -12.2295 -9.5031 10.2643 -10.4012 -51.677 -0 -0 63.9974 5.2269e-05 -14.8393 -19.9678 -174.83 -1.74787e-06 -1.44698 6.85214 7.33552 -18.8803 -0 -0 70.6254 -3.82082e-07 6.4558 0.841795 0.0952001 6.34665e-07 -33.193 
-63.814 75.882 -11.291 158.342 80.049 178.475 0 -0 0 4.44322 -9.96262 20.294 28.147 -9.40952 1.23993e-05 57.0419 -8.48917 0.163701 -0 78.2452 -0 -12.2257 -3.90732 0.418599 -14.4519 9.61133 4.8572e-05 -54.8118 18.7553 5.14662 180 -87.4954 -180 -4.32378 4.49154 -0.169602 9.16499 -12.6294 -9.61872 10.1412 -10.3758 -51.2585 -0 -0 64.0858 6.98882e-05 -14.7674 -20.2078 -174.797 -1.46104e-07 -0.665601 6.60538 7.11659 -20.4678 -0 -0 72.1454 -1.12252e-07 7.54526 0.289398 0.0383002 2.21288e-07 -31.7343 
-62.991 76.006 -11.188 157.56 80.0675 177.953 0 -0 0 4.54832 -9.55966 20.2792 27.8651 -9.18021 1.42438e-05 57.0712 -7.96893 0.0297031 -1.00398e-06 78.9746 -1.21843e-06 -12.1299 -3.71193 0.394501 -14.4319 9.6776 -5.03702e-05 -55.2696 19.4442 5.78082 180 -88.5242 180 -3.95885 4.72724 -0.163501 9.49289 -13.01 -9.78278 10.0524 -10.3578 -50.849 -0 -0 64.1144 -4.62243e-06 -14.635 -20.369 5.19332 -9.47901e-08 -0.43089 6.33743 6.93431 -22.1346 -0 -0 73.5735 3.99484e-07 8.57617 -0.262093 -0.0395004 1.04873e-07 -30.5929 
-62.185 76.144 -11.084 156.798 80.1371 177.463 0 -0 0 4.64684 -9.11674 20.2968 27.538 -8.94854 -3.24235e-05 57.0576 -7.50985 -0.0322261 -1.54766e-06 79.8112 -1.8507e-06 -12.0007 -3.47702 0.36561 -14.4384 9.77153 1.17057e-05 -55.6584 20.1513 6.3815 180 -89.4645 180 -3.60868 4.93857 -0.1557 9.79761 -13.3714 -9.97152 10 -10.3593 -50.4469 -0 -0 64.0773 -0.000141895 -14.4385 -20.4501 5.14051 1.47046e-06 -1.82264 6.04979 6.77029 -23.8777 -0 -0 74.9028 -8.85929e-07 9.4959 -0.789317 -0.132001 3.43362e-07 -29.7169 
-61.391 76.294 -10.981 156.016 80.2455 176.958 0 -0 0 4.72544 -8.63925 20.3502 27.175 -8.73941 2.08974e-05 56.9859 -7.07617 0.000557024 -6.71741e-07 80.7034 -1.25683e-06 -11.8484 -3.22595 0.334801 -14.4697 9.89026 -4.58875e-06 -55.9828 20.8842 6.94039 -2.7457e-05 -89.7405 2.73319e-05 -3.27777 5.11966 -0.146603 10.0807 -13.7105 -10.1647 9.97473 -10.3879 -50.0427 -0 -0 63.9716 -4.44457e-05 -14.1781 -20.4635 5.04747 -2.0646e-06 -3.40773 5.73492 6.61076 -25.6846 -0 -0 76.1192 -4.45757e-06 10.2629 -1.28114 -0.231897 8.17725e-08 -29.0307 
